<svg width="275" height="22" viewBox="0 0 275 22" fill="none" xmlns="http://www.w3.org/2000/svg">
<path d="M0.092 21L4.236 0.223999H6.924L4.936 10.052L3.956 13.44L3.536 16.632L2.64 21H0.092ZM8.632 21.168C7.36267 21.168 6.27067 20.944 5.356 20.496C4.46 20.0293 3.76933 19.3667 3.284 18.508C2.79867 17.6307 2.556 16.576 2.556 15.344C2.556 13.9627 2.73333 12.7027 3.088 11.564C3.44267 10.4067 3.96533 9.41733 4.656 8.596C5.36533 7.77467 6.20533 7.14 7.176 6.692C8.14667 6.244 9.248 6.02 10.48 6.02C11.7493 6.02 12.8693 6.272 13.84 6.776C14.8293 7.28 15.604 8.01733 16.164 8.988C16.7427 9.94 17.032 11.0787 17.032 12.404C17.032 13.6733 16.8173 14.84 16.388 15.904C15.9773 16.968 15.3893 17.892 14.624 18.676C13.8773 19.46 12.9907 20.076 11.964 20.524C10.9373 20.9533 9.82667 21.168 8.632 21.168ZM8.52 18.816C9.64 18.816 10.6293 18.5453 11.488 18.004C12.3653 17.4627 13.056 16.7253 13.56 15.792C14.064 14.84 14.316 13.7573 14.316 12.544C14.316 11.2373 13.9333 10.22 13.168 9.492C12.4027 8.74533 11.3107 8.372 9.892 8.372C8.79067 8.372 7.792 8.64267 6.896 9.184C6.01867 9.70667 5.328 10.444 4.824 11.396C4.33867 12.3293 4.096 13.412 4.096 14.644C4.096 15.932 4.47867 16.9493 5.244 17.696C6.00933 18.4427 7.10133 18.816 8.52 18.816ZM26.9619 21.168C25.7113 21.168 24.5913 20.916 23.6019 20.412C22.6126 19.8893 21.8286 19.152 21.2499 18.2C20.6899 17.248 20.4099 16.1 20.4099 14.756C20.4099 13.4867 20.6153 12.32 21.0259 11.256C21.4553 10.192 22.0433 9.268 22.7899 8.484C23.5553 7.7 24.4513 7.09333 25.4779 6.664C26.5046 6.23467 27.6153 6.02 28.8099 6.02C30.0979 6.02 31.1899 6.244 32.0859 6.692C32.9819 7.14 33.6726 7.80267 34.1579 8.68C34.6433 9.53867 34.8859 10.5933 34.8859 11.844C34.8859 13.6733 34.5686 15.2973 33.9339 16.716C33.2993 18.116 32.3846 19.208 31.1899 19.992C30.0139 20.776 28.6046 21.168 26.9619 21.168ZM27.5499 18.816C28.6699 18.816 29.6686 18.5453 30.5459 18.004C31.4233 17.4627 32.1046 16.7253 32.5899 15.792C33.0939 14.84 33.3459 13.7573 33.3459 12.544C33.3459 11.2373 32.9633 10.22 32.1979 9.492C31.4326 8.74533 30.3406 8.372 28.9219 8.372C27.8206 8.372 26.8313 8.64267 25.9539 9.184C25.0766 9.70667 24.3859 10.444 23.8819 11.396C23.3779 12.3293 23.1259 13.412 23.1259 14.644C23.1259 15.932 23.5086 16.9493 24.2739 17.696C25.0393 18.4427 26.1313 18.816 27.5499 18.816ZM31.8339 21L32.6179 17.164L33.5139 13.72L33.8779 10.192L34.6619 6.16H37.3499L34.4099 21H31.8339ZM45.4599 21.168C44.2092 21.168 43.0239 21.0093 41.9039 20.692C40.8025 20.356 39.9532 19.9453 39.3559 19.46L40.5599 17.332C41.1385 17.78 41.8852 18.144 42.7999 18.424C43.7332 18.704 44.7039 18.844 45.7119 18.844C46.9999 18.844 47.9705 18.648 48.6239 18.256C49.2772 17.864 49.6039 17.332 49.6039 16.66C49.6039 16.1747 49.4079 15.8107 49.0159 15.568C48.6239 15.3067 48.1105 15.1107 47.4759 14.98C46.8599 14.8307 46.1972 14.6907 45.4879 14.56C44.7785 14.4107 44.1159 14.2053 43.4999 13.944C42.8839 13.6827 42.3705 13.3093 41.9599 12.824C41.5679 12.32 41.3719 11.6573 41.3719 10.836C41.3719 9.84667 41.6519 8.99733 42.2119 8.288C42.7719 7.56 43.5559 7 44.5639 6.608C45.5719 6.216 46.7479 6.02 48.0919 6.02C49.0625 6.02 50.0145 6.14133 50.9479 6.384C51.8999 6.608 52.6745 6.93467 53.2719 7.364L52.2079 9.492C51.5919 9.06267 50.9012 8.764 50.1359 8.596C49.3705 8.40933 48.6052 8.316 47.8399 8.316C46.5892 8.316 45.6465 8.53067 45.0119 8.96C44.3772 9.37067 44.0599 9.89333 44.0599 10.528C44.0599 11.0133 44.2559 11.396 44.6479 11.676C45.0399 11.9373 45.5439 12.1427 46.1599 12.292C46.7945 12.4413 47.4572 12.5907 48.1479 12.74C48.8572 12.8707 49.5199 13.0667 50.1359 13.328C50.7705 13.5707 51.2839 13.9347 51.6759 14.42C52.0679 14.8867 52.2639 15.5307 52.2639 16.352C52.2639 17.3787 51.9745 18.256 51.3959 18.984C50.8359 19.6933 50.0425 20.2347 49.0159 20.608C47.9892 20.9813 46.8039 21.168 45.4599 21.168ZM66.5992 6.02C67.9059 6.02 68.9979 6.28133 69.8752 6.804C70.7526 7.32667 71.3592 8.092 71.6952 9.1C72.0499 10.0893 72.0872 11.284 71.8072 12.684L70.1552 21H67.4672L69.1192 12.684C69.3992 11.34 69.2686 10.2947 68.7272 9.548C68.1859 8.80133 67.2152 8.428 65.8152 8.428C64.3779 8.428 63.1832 8.82 62.2312 9.604C61.2792 10.3693 60.6446 11.5547 60.3272 13.16L58.7592 21H56.0712L60.2152 0.223999H62.9032L60.8592 10.416L60.2432 9.268C60.9526 8.148 61.8486 7.32667 62.9312 6.804C64.0326 6.28133 65.2552 6.02 66.5992 6.02Z" fill="#DA005C"/>
<path d="M97.5018 6.02C98.8271 6.02 99.9191 6.28133 100.778 6.804C101.636 7.32667 102.234 8.092 102.57 9.1C102.924 10.0893 102.952 11.284 102.654 12.684L101.002 21H98.3138L99.9658 12.684C100.246 11.34 100.124 10.2947 99.6018 9.548C99.0978 8.80133 98.1738 8.428 96.8298 8.428C95.4671 8.428 94.3378 8.81067 93.4418 9.576C92.5458 10.3413 91.9391 11.508 91.6218 13.076L90.0258 21H87.3378L89.0178 12.684C89.2791 11.34 89.1485 10.2947 88.6258 9.548C88.1218 8.80133 87.1978 8.428 85.8538 8.428C84.4911 8.428 83.3618 8.82 82.4658 9.604C81.5698 10.3693 80.9631 11.5547 80.6458 13.16L79.0778 21H76.3898L79.3298 6.16H81.9058L81.0658 10.416L80.5618 9.268C81.2525 8.148 82.1205 7.32667 83.1658 6.804C84.2298 6.28133 85.4058 6.02 86.6938 6.02C87.7018 6.02 88.5791 6.188 89.3258 6.524C90.0725 6.86 90.6605 7.364 91.0898 8.036C91.5378 8.68933 91.7991 9.48267 91.8738 10.416L90.4178 10.136C91.1831 8.75467 92.1631 7.728 93.3578 7.056C94.5711 6.36533 95.9525 6.02 97.5018 6.02ZM114.18 21.168C112.761 21.168 111.529 20.9067 110.484 20.384C109.457 19.8427 108.654 19.096 108.076 18.144C107.497 17.1733 107.208 16.044 107.208 14.756C107.208 13.076 107.581 11.5827 108.328 10.276C109.074 8.95067 110.101 7.91467 111.408 7.168C112.733 6.40267 114.236 6.02 115.916 6.02C117.316 6.02 118.538 6.28133 119.584 6.804C120.629 7.32667 121.432 8.064 121.992 9.016C122.57 9.968 122.86 11.0973 122.86 12.404C122.86 14.084 122.486 15.5867 121.74 16.912C120.993 18.2187 119.966 19.2547 118.66 20.02C117.372 20.7853 115.878 21.168 114.18 21.168ZM114.348 18.816C115.468 18.816 116.466 18.5453 117.344 18.004C118.221 17.4627 118.902 16.7253 119.388 15.792C119.892 14.84 120.144 13.7573 120.144 12.544C120.144 11.2373 119.761 10.22 118.996 9.492C118.23 8.74533 117.138 8.372 115.72 8.372C114.618 8.372 113.629 8.64267 112.752 9.184C111.874 9.70667 111.184 10.444 110.68 11.396C110.176 12.3293 109.924 13.412 109.924 14.644C109.924 15.932 110.306 16.9493 111.072 17.696C111.837 18.4427 112.929 18.816 114.348 18.816ZM136.797 6.02C138.104 6.02 139.196 6.28133 140.073 6.804C140.951 7.32667 141.557 8.092 141.893 9.1C142.248 10.0893 142.285 11.284 142.005 12.684L140.353 21H137.665L139.317 12.684C139.597 11.34 139.467 10.2947 138.925 9.548C138.384 8.80133 137.413 8.428 136.013 8.428C134.576 8.428 133.381 8.82 132.429 9.604C131.477 10.3693 130.843 11.5547 130.525 13.16L128.957 21H126.269L130.413 0.223999H133.101L131.057 10.416L130.441 9.268C131.151 8.148 132.047 7.32667 133.129 6.804C134.231 6.28133 135.453 6.02 136.797 6.02ZM153.112 21.168C151.861 21.168 150.741 20.916 149.752 20.412C148.762 19.8893 147.978 19.152 147.4 18.2C146.84 17.248 146.56 16.1 146.56 14.756C146.56 13.4867 146.765 12.32 147.176 11.256C147.605 10.192 148.193 9.268 148.94 8.484C149.705 7.7 150.601 7.09333 151.628 6.664C152.654 6.23467 153.765 6.02 154.96 6.02C156.248 6.02 157.34 6.244 158.236 6.692C159.132 7.14 159.822 7.80267 160.308 8.68C160.793 9.53867 161.036 10.5933 161.036 11.844C161.036 13.6733 160.718 15.2973 160.084 16.716C159.449 18.116 158.534 19.208 157.34 19.992C156.164 20.776 154.754 21.168 153.112 21.168ZM153.7 18.816C154.82 18.816 155.818 18.5453 156.696 18.004C157.573 17.4627 158.254 16.7253 158.74 15.792C159.244 14.84 159.496 13.7573 159.496 12.544C159.496 11.2373 159.113 10.22 158.348 9.492C157.582 8.74533 156.49 8.372 155.072 8.372C153.97 8.372 152.981 8.64267 152.104 9.184C151.226 9.70667 150.536 10.444 150.032 11.396C149.528 12.3293 149.276 13.412 149.276 14.644C149.276 15.932 149.658 16.9493 150.424 17.696C151.189 18.4427 152.281 18.816 153.7 18.816ZM157.984 21L158.768 17.164L159.664 13.72L160.028 10.192L160.812 6.16H163.5L160.56 21H157.984ZM177.462 6.02C178.768 6.02 179.86 6.28133 180.738 6.804C181.615 7.32667 182.222 8.092 182.558 9.1C182.912 10.0893 182.95 11.284 182.67 12.684L181.018 21H178.33L179.982 12.684C180.262 11.34 180.131 10.2947 179.59 9.548C179.048 8.80133 178.078 8.428 176.678 8.428C175.24 8.428 174.046 8.82 173.094 9.604C172.142 10.3693 171.507 11.5547 171.19 13.16L169.622 21H166.934L169.874 6.16H172.45L171.61 10.416L171.106 9.268C171.815 8.148 172.711 7.32667 173.794 6.804C174.895 6.28133 176.118 6.02 177.462 6.02ZM193.776 21.168C192.526 21.168 191.406 20.916 190.416 20.412C189.427 19.8893 188.643 19.152 188.064 18.2C187.504 17.248 187.224 16.1 187.224 14.756C187.224 13.4867 187.43 12.32 187.84 11.256C188.27 10.192 188.858 9.268 189.604 8.484C190.37 7.7 191.266 7.09333 192.292 6.664C193.319 6.23467 194.43 6.02 195.624 6.02C196.912 6.02 198.004 6.244 198.9 6.692C199.796 7.14 200.487 7.80267 200.972 8.68C201.458 9.53867 201.7 10.5933 201.7 11.844C201.7 13.2253 201.523 14.4853 201.168 15.624C200.814 16.7627 200.282 17.752 199.572 18.592C198.882 19.4133 198.051 20.048 197.08 20.496C196.11 20.944 195.008 21.168 193.776 21.168ZM194.364 18.816C195.484 18.816 196.483 18.5453 197.36 18.004C198.238 17.4627 198.919 16.7253 199.404 15.792C199.908 14.84 200.16 13.7573 200.16 12.544C200.16 11.2373 199.778 10.22 199.012 9.492C198.247 8.74533 197.155 8.372 195.736 8.372C194.635 8.372 193.646 8.64267 192.768 9.184C191.891 9.70667 191.2 10.444 190.696 11.396C190.192 12.3293 189.94 13.412 189.94 14.644C189.94 15.932 190.323 16.9493 191.088 17.696C191.854 18.4427 192.946 18.816 194.364 18.816ZM198.648 21L199.432 17.164L200.3 13.72L200.692 10.192L202.68 0.223999H205.368L201.224 21H198.648ZM212.274 21.168C211.024 21.168 209.838 21.0093 208.718 20.692C207.617 20.356 206.768 19.9453 206.17 19.46L207.374 17.332C207.953 17.78 208.7 18.144 209.614 18.424C210.548 18.704 211.518 18.844 212.526 18.844C213.814 18.844 214.785 18.648 215.438 18.256C216.092 17.864 216.418 17.332 216.418 16.66C216.418 16.1747 216.222 15.8107 215.83 15.568C215.438 15.3067 214.925 15.1107 214.29 14.98C213.674 14.8307 213.012 14.6907 212.302 14.56C211.593 14.4107 210.93 14.2053 210.314 13.944C209.698 13.6827 209.185 13.3093 208.774 12.824C208.382 12.32 208.186 11.6573 208.186 10.836C208.186 9.84667 208.466 8.99733 209.026 8.288C209.586 7.56 210.37 7 211.378 6.608C212.386 6.216 213.562 6.02 214.906 6.02C215.877 6.02 216.829 6.14133 217.762 6.384C218.714 6.608 219.489 6.93467 220.086 7.364L219.022 9.492C218.406 9.06267 217.716 8.764 216.95 8.596C216.185 8.40933 215.42 8.316 214.654 8.316C213.404 8.316 212.461 8.53067 211.826 8.96C211.192 9.37067 210.874 9.89333 210.874 10.528C210.874 11.0133 211.07 11.396 211.462 11.676C211.854 11.9373 212.358 12.1427 212.974 12.292C213.609 12.4413 214.272 12.5907 214.962 12.74C215.672 12.8707 216.334 13.0667 216.95 13.328C217.585 13.5707 218.098 13.9347 218.49 14.42C218.882 14.8867 219.078 15.5307 219.078 16.352C219.078 17.3787 218.789 18.256 218.21 18.984C217.65 19.6933 216.857 20.2347 215.83 20.608C214.804 20.9813 213.618 21.168 212.274 21.168ZM227.11 21.09C226.846 21.09 226.624 21 226.444 20.82C226.264 20.64 226.174 20.418 226.174 20.154C226.174 19.854 226.276 19.608 226.48 19.416C226.684 19.224 226.918 19.128 227.182 19.128C227.446 19.128 227.662 19.218 227.83 19.398C228.01 19.566 228.1 19.788 228.1 20.064C228.1 20.268 228.052 20.448 227.956 20.604C227.872 20.748 227.752 20.868 227.596 20.964C227.44 21.048 227.278 21.09 227.11 21.09ZM237.368 21.09C236.468 21.09 235.688 20.928 235.028 20.604C234.38 20.268 233.876 19.8 233.516 19.2C233.168 18.6 232.994 17.892 232.994 17.076C232.994 15.996 233.228 15.036 233.696 14.196C234.164 13.344 234.812 12.678 235.64 12.198C236.48 11.706 237.434 11.46 238.502 11.46C239.378 11.46 240.128 11.622 240.752 11.946C241.388 12.258 241.88 12.726 242.228 13.35L241.148 13.98C240.884 13.5 240.518 13.146 240.05 12.918C239.594 12.69 239.042 12.576 238.394 12.576C237.602 12.576 236.894 12.768 236.27 13.152C235.646 13.536 235.154 14.064 234.794 14.736C234.446 15.396 234.272 16.158 234.272 17.022C234.272 17.946 234.542 18.666 235.082 19.182C235.634 19.698 236.414 19.956 237.422 19.956C238.034 19.956 238.598 19.842 239.114 19.614C239.642 19.374 240.074 19.032 240.41 18.588L241.328 19.29C240.92 19.854 240.362 20.298 239.654 20.622C238.946 20.934 238.184 21.09 237.368 21.09ZM248.9 21.09C248.024 21.09 247.262 20.928 246.614 20.604C245.978 20.268 245.48 19.8 245.12 19.2C244.772 18.6 244.598 17.892 244.598 17.076C244.598 15.996 244.832 15.036 245.3 14.196C245.768 13.344 246.416 12.678 247.244 12.198C248.072 11.706 249.014 11.46 250.07 11.46C250.946 11.46 251.702 11.622 252.338 11.946C252.986 12.27 253.484 12.732 253.832 13.332C254.192 13.932 254.372 14.64 254.372 15.456C254.372 16.536 254.138 17.502 253.67 18.354C253.202 19.194 252.554 19.86 251.726 20.352C250.91 20.844 249.968 21.09 248.9 21.09ZM248.99 19.956C249.782 19.956 250.484 19.77 251.096 19.398C251.72 19.014 252.206 18.486 252.554 17.814C252.914 17.142 253.094 16.38 253.094 15.528C253.094 14.592 252.818 13.866 252.266 13.35C251.726 12.834 250.964 12.576 249.98 12.576C249.2 12.576 248.498 12.768 247.874 13.152C247.25 13.536 246.758 14.064 246.398 14.736C246.05 15.396 245.876 16.158 245.876 17.022C245.876 17.946 246.146 18.666 246.686 19.182C247.238 19.698 248.006 19.956 248.99 19.956ZM271.058 11.46C271.91 11.46 272.6 11.628 273.128 11.964C273.668 12.288 274.04 12.762 274.244 13.386C274.448 14.01 274.46 14.754 274.28 15.618L273.2 21H271.922L273.002 15.6C273.194 14.664 273.104 13.932 272.732 13.404C272.372 12.876 271.712 12.612 270.752 12.612C269.804 12.612 269.006 12.876 268.358 13.404C267.722 13.932 267.296 14.724 267.08 15.78L266.036 21H264.758L265.838 15.6C266.03 14.664 265.94 13.932 265.568 13.404C265.196 12.876 264.536 12.612 263.588 12.612C262.616 12.612 261.812 12.888 261.176 13.44C260.54 13.992 260.108 14.82 259.88 15.924L258.872 21H257.594L259.466 11.55H260.69L260.15 14.268L259.88 13.8C260.336 12.984 260.912 12.39 261.608 12.018C262.304 11.646 263.09 11.46 263.966 11.46C264.626 11.46 265.19 11.574 265.658 11.802C266.138 12.018 266.51 12.342 266.774 12.774C267.05 13.194 267.2 13.698 267.224 14.286L266.558 14.142C267.026 13.242 267.644 12.57 268.412 12.126C269.192 11.682 270.074 11.46 271.058 11.46Z" fill="#17080E"/>
</svg>
