<svg width="282" height="272" viewBox="0 0 282 272" fill="none" xmlns="http://www.w3.org/2000/svg">
<g clip-path="url(#clip0_479_1250)">
<path fill-rule="evenodd" clip-rule="evenodd" d="M0 0.102051H281.618V189.922H0V0.102051Z" fill="#F3F3F3"/>
<path d="M159.533 39.5391H192.553" stroke="white" stroke-width="12.98" stroke-linecap="round" stroke-linejoin="round"/>
<path d="M159.533 50.334H188.935" stroke="white" stroke-width="12.98" stroke-linecap="round" stroke-linejoin="round"/>
<path d="M70.2861 190.333V0.516602" stroke="#DFDFDF" stroke-width="2.93" stroke-linecap="round"/>
<path d="M140.572 190.333V0.516602" stroke="#DFDFDF" stroke-width="2.93" stroke-linecap="round"/>
<path d="M210.857 190.333V0.516602" stroke="#DFDFDF" stroke-width="2.93" stroke-linecap="round"/>
<path fill-rule="evenodd" clip-rule="evenodd" d="M123.082 260.932L123.704 268.231L130.104 268.386L128.917 260.658L123.082 260.932Z" fill="#E49D75"/>
<path fill-rule="evenodd" clip-rule="evenodd" d="M64.7608 247.917L61.7891 257.949L64.824 261.111L70.209 252.329L64.7608 247.917Z" fill="#E49D75"/>
<path fill-rule="evenodd" clip-rule="evenodd" d="M122.615 266.59L122.499 272L139.276 271.898C139.392 271.975 139.307 269.246 139.307 269.246L129.324 266.513L122.615 266.59Z" fill="black"/>
<path fill-rule="evenodd" clip-rule="evenodd" d="M61.5607 256.231L58.1533 260.879L65.2771 270.967L72.0075 271.013L71.9161 267.606L69.2184 266.411L66.8262 260.478L61.5607 256.231Z" fill="black"/>
<path fill-rule="evenodd" clip-rule="evenodd" d="M128.935 51.5H161.708V84.2736H128.935V51.5Z" fill="#E0E0E0"/>
<path fill-rule="evenodd" clip-rule="evenodd" d="M128.935 51.5H161.708V58.8205H128.935V51.5Z" fill="#A4A4A4"/>
<path fill-rule="evenodd" clip-rule="evenodd" d="M91.2361 90.5123C92.9433 90.1364 99.0203 90.298 100.647 89.4268C102.273 88.5557 122.348 73.5142 124.368 71.4663C126.388 69.4184 128.885 67.641 130.691 65.4139C132.496 63.1869 130.751 69.3587 129.173 70.5741C128.991 72.2251 128.945 75.6816 128.945 75.6816C128.528 75.6082 128.099 75.6237 127.688 75.7272C127.277 75.8307 126.893 76.0199 126.56 76.2823C125.422 77.1745 108.961 96.5471 108.961 96.5471C108.961 96.5471 89.5289 90.8916 91.2361 90.5123Z" fill="#E49D75"/>
<path fill-rule="evenodd" clip-rule="evenodd" d="M76.3243 148.388C75.3056 152.252 73.342 179.3 79.3803 192.831C76.7599 202.726 63.4502 248.841 63.4502 248.841L70.0681 254.672L104.184 203.035C104.184 203.035 97.0809 146.547 76.3243 148.388Z" fill="#00A287"/>
<path fill-rule="evenodd" clip-rule="evenodd" d="M111.157 146.715C112.537 150.555 126.644 200.927 126.644 200.927L129.834 262.115L122.534 262.691L99.8598 201.078C97.0918 197.941 79.5072 155.838 78.7168 150.435C82.1733 146.761 109.776 142.873 111.157 146.715Z" fill="#00BD9D"/>
<path fill-rule="evenodd" clip-rule="evenodd" d="M85.7735 88.0708C88.5521 88.0708 104.289 91.8856 107.247 98.0329C108.873 101.412 116.007 142.725 112.045 149.22C108.083 155.715 80.782 155.438 75.4567 150.541C72.4603 147.794 71.4943 88.0497 85.7735 88.0708Z" fill="#E2DA51"/>
<path fill-rule="evenodd" clip-rule="evenodd" d="M0 0.102051H281.618V25.513H0V0.102051Z" fill="#E0E0E0"/>
<path d="M13.0498 40.3965H56.762" stroke="white" stroke-width="12.98" stroke-linecap="round" stroke-linejoin="round"/>
<path fill-rule="evenodd" clip-rule="evenodd" d="M82.2891 81.0386H88.3169V92.7359C86.1495 94.4607 82.2891 92.7359 82.2891 92.7359V81.0386Z" fill="#E49D75"/>
<path fill-rule="evenodd" clip-rule="evenodd" d="M74.5781 70.4653C74.5781 63.1765 79.5275 57.2681 85.6361 57.2681C91.7448 57.2681 96.6907 63.1765 96.6907 70.4653C96.6907 77.7542 91.7412 83.6661 85.6361 83.6661C79.5311 83.6661 74.5781 77.7542 74.5781 70.4653Z" fill="#E49D75"/>
<path fill-rule="evenodd" clip-rule="evenodd" d="M84.3056 55.0973C87.8464 55.0165 92.3462 57.2682 92.3462 58.8313C92.3462 61.5361 88.152 67.6693 85.0292 70.1844C85.9038 72.2042 86.7047 73.5391 86.7047 75.2533C86.7047 76.9675 84.0386 83.6838 84.0386 88.2503C84.0386 91.8333 84.8395 94.2711 84.8395 97.2429C84.8395 105.361 79.5423 110.275 71.8811 110.275C64.2199 110.275 59.0737 101.967 59.0421 95.2231C59.0035 86.9541 68.1752 76.8059 70.3987 70.5708C72.271 65.3088 75.8153 55.0973 84.3056 55.0973Z" fill="black"/>
<path fill-rule="evenodd" clip-rule="evenodd" d="M81.9658 71.1469C81.9658 70.5993 82.1283 70.064 82.4326 69.6087C82.7369 69.1535 83.1694 68.7987 83.6754 68.5893C84.1814 68.3799 84.7381 68.3253 85.2751 68.4324C85.8122 68.5394 86.3054 68.8034 86.6924 69.1909C87.0793 69.5784 87.3427 70.0719 87.4491 70.6091C87.5555 71.1462 87.5002 71.7029 87.2901 72.2086C87.0801 72.7144 86.7248 73.1464 86.2691 73.4502C85.8135 73.7539 85.2779 73.9156 84.7303 73.9149C84.367 73.9149 84.0072 73.8433 83.6716 73.7042C83.336 73.565 83.031 73.3611 82.7743 73.104C82.5175 72.8469 82.314 72.5417 82.1753 72.2059C82.0365 71.8701 81.9654 71.5103 81.9658 71.1469Z" fill="#E49D75"/>
<path fill-rule="evenodd" clip-rule="evenodd" d="M111.743 110.528C114.848 111.266 127.568 113.398 130.009 112.636C132.45 111.873 157.601 87.8885 159.561 86.1146C161.521 84.3406 165.456 81.8291 165.93 78.7589C166.404 75.6888 165.93 73.0613 161.665 71.5227C161.746 73.5039 161.824 76.5951 161.739 76.1349C161.019 73.7463 160.935 71.038 159.632 71.0696C158.929 73.3037 159.92 77.5154 158.191 80.3361C156.207 82.493 129.847 99.7896 127.079 100.664C123.468 100.664 114.209 97.5028 114.209 97.5028C114.209 97.5028 108.641 109.79 111.743 110.528Z" fill="#E49D75"/>
<path fill-rule="evenodd" clip-rule="evenodd" d="M91.099 98.1383C93.2487 89.1106 112.109 93.8844 115.28 96.4171C116.391 99.856 114.645 110.057 111.873 111.95C107.711 112.555 88.8087 107.742 91.099 98.1383Z" fill="#FFF773"/>
<path d="M13.0498 59.6143H46.0693" stroke="white" stroke-width="12.98" stroke-linecap="round" stroke-linejoin="round"/>
<path d="M13.0498 92.6304H30.9471" stroke="white" stroke-width="12.98" stroke-linecap="round" stroke-linejoin="round"/>
<path d="M13.0498 105.086H46.0693" stroke="white" stroke-width="12.98" stroke-linecap="round" stroke-linejoin="round"/>
<path d="M13.0498 115.881H42.4512" stroke="white" stroke-width="12.98" stroke-linecap="round" stroke-linejoin="round"/>
<path d="M222.99 38.8647H266.702" stroke="white" stroke-width="12.98" stroke-linecap="round" stroke-linejoin="round"/>
<path d="M222.99 50.8398H253.551" stroke="white" stroke-width="12.98" stroke-linecap="round" stroke-linejoin="round"/>
<path d="M222.99 63.5801H264.04" stroke="white" stroke-width="12.98" stroke-linecap="round" stroke-linejoin="round"/>
<path d="M222.99 75.1724H243.68" stroke="white" stroke-width="12.98" stroke-linecap="round" stroke-linejoin="round"/>
<path d="M139.455 66.2814H139.413L137.214 67.4441L136.884 66.1514L139.631 64.6831H141.078V77.2446H139.455V66.2814Z" fill="#A4A4A4"/>
<path d="M153.818 64.6973V65.8178L148.345 77.2587H146.589L152.037 66.1445V66.1059H145.894V64.7008L153.818 64.6973Z" fill="#A4A4A4"/>
</g>
<defs>
<clipPath id="clip0_479_1250">
<rect width="281.618" height="272" fill="white"/>
</clipPath>
</defs>
</svg>
