<svg width="64" height="64" viewBox="0 0 64 64" fill="none" xmlns="http://www.w3.org/2000/svg">
<rect width="64" height="64" rx="12" fill="white"/>
<path d="M5.65811 32V17.3H12.2521C13.9461 17.3 15.2481 17.643 16.1581 18.329C17.0681 19.001 17.5231 19.925 17.5231 21.101C17.5231 21.899 17.3411 22.571 16.9771 23.117C16.6271 23.663 16.1511 24.083 15.5491 24.377C14.9471 24.671 14.2961 24.818 13.5961 24.818L13.9741 24.188C14.8141 24.188 15.5561 24.335 16.2001 24.629C16.8441 24.923 17.3551 25.357 17.7331 25.931C18.1111 26.491 18.3001 27.191 18.3001 28.031C18.3001 29.291 17.8241 30.271 16.8721 30.971C15.9341 31.657 14.5341 32 12.6721 32H5.65811ZM7.75811 30.299H12.5881C13.7501 30.299 14.6391 30.103 15.2551 29.711C15.8711 29.319 16.1791 28.703 16.1791 27.863C16.1791 27.009 15.8711 26.386 15.2551 25.994C14.6391 25.602 13.7501 25.406 12.5881 25.406H7.56911V23.705H12.0631C13.1271 23.705 13.9531 23.509 14.5411 23.117C15.1291 22.725 15.4231 22.137 15.4231 21.353C15.4231 20.569 15.1291 19.981 14.5411 19.589C13.9531 19.197 13.1271 19.001 12.0631 19.001H7.75811V30.299ZM29.1117 32V29.648L29.0067 29.207V25.196C29.0067 24.342 28.7547 23.684 28.2507 23.222C27.7607 22.746 27.0187 22.508 26.0247 22.508C25.3667 22.508 24.7227 22.62 24.0927 22.844C23.4627 23.054 22.9307 23.341 22.4967 23.705L21.6567 22.193C22.2307 21.731 22.9167 21.381 23.7147 21.143C24.5267 20.891 25.3737 20.765 26.2557 20.765C27.7817 20.765 28.9577 21.136 29.7837 21.878C30.6097 22.62 31.0227 23.754 31.0227 25.28V32H29.1117ZM25.4577 32.126C24.6317 32.126 23.9037 31.986 23.2737 31.706C22.6577 31.426 22.1817 31.041 21.8457 30.551C21.5097 30.047 21.3417 29.48 21.3417 28.85C21.3417 28.248 21.4817 27.702 21.7617 27.212C22.0557 26.722 22.5247 26.33 23.1687 26.036C23.8267 25.742 24.7087 25.595 25.8147 25.595H29.3427V27.044H25.8987C24.8907 27.044 24.2117 27.212 23.8617 27.548C23.5117 27.884 23.3367 28.29 23.3367 28.766C23.3367 29.312 23.5537 29.753 23.9877 30.089C24.4217 30.411 25.0237 30.572 25.7937 30.572C26.5497 30.572 27.2077 30.404 27.7677 30.068C28.3417 29.732 28.7547 29.242 29.0067 28.598L29.4057 29.984C29.1397 30.642 28.6707 31.167 27.9987 31.559C27.3267 31.937 26.4797 32.126 25.4577 32.126ZM38.8904 32.126C37.9664 32.126 37.0844 32 36.2444 31.748C35.4184 31.496 34.7674 31.188 34.2914 30.824L35.1314 29.228C35.6074 29.55 36.1954 29.823 36.8954 30.047C37.5954 30.271 38.3094 30.383 39.0374 30.383C39.9754 30.383 40.6474 30.25 41.0534 29.984C41.4734 29.718 41.6834 29.347 41.6834 28.871C41.6834 28.521 41.5574 28.248 41.3054 28.052C41.0534 27.856 40.7174 27.709 40.2974 27.611C39.8914 27.513 39.4364 27.429 38.9324 27.359C38.4284 27.275 37.9244 27.177 37.4204 27.065C36.9164 26.939 36.4544 26.771 36.0344 26.561C35.6144 26.337 35.2784 26.036 35.0264 25.658C34.7744 25.266 34.6484 24.748 34.6484 24.104C34.6484 23.432 34.8374 22.844 35.2154 22.34C35.5934 21.836 36.1254 21.451 36.8114 21.185C37.5114 20.905 38.3374 20.765 39.2894 20.765C40.0174 20.765 40.7524 20.856 41.4944 21.038C42.2504 21.206 42.8664 21.451 43.3424 21.773L42.4814 23.369C41.9774 23.033 41.4524 22.802 40.9064 22.676C40.3604 22.55 39.8144 22.487 39.2684 22.487C38.3864 22.487 37.7284 22.634 37.2944 22.928C36.8604 23.208 36.6434 23.572 36.6434 24.02C36.6434 24.398 36.7694 24.692 37.0214 24.902C37.2874 25.098 37.6234 25.252 38.0294 25.364C38.4494 25.476 38.9114 25.574 39.4154 25.658C39.9194 25.728 40.4234 25.826 40.9274 25.952C41.4314 26.064 41.8864 26.225 42.2924 26.435C42.7124 26.645 43.0484 26.939 43.3004 27.317C43.5664 27.695 43.6994 28.199 43.6994 28.829C43.6994 29.501 43.5034 30.082 43.1114 30.572C42.7194 31.062 42.1664 31.447 41.4524 31.727C40.7384 31.993 39.8844 32.126 38.8904 32.126ZM53.1069 20.765C54.0169 20.765 54.8149 20.94 55.5009 21.29C56.2009 21.64 56.7469 22.172 57.1389 22.886C57.5309 23.6 57.7269 24.503 57.7269 25.595V32H55.7109V25.826C55.7109 24.748 55.4449 23.936 54.9129 23.39C54.3949 22.844 53.6599 22.571 52.7079 22.571C51.9939 22.571 51.3709 22.711 50.8389 22.991C50.3069 23.271 49.8939 23.684 49.5999 24.23C49.3199 24.776 49.1799 25.455 49.1799 26.267V32H47.1639V16.418H49.1799V23.873L48.7809 23.075C49.1449 22.347 49.7049 21.78 50.4609 21.374C51.2169 20.968 52.0989 20.765 53.1069 20.765Z" fill="#DA005C"/>
<path d="M5.14705 45V37.3H6.04905L9.50305 43.119H9.01905L12.4291 37.3H13.3311L13.3421 45H12.2861L12.2751 38.961H12.5281L9.49205 44.065H8.98605L5.92805 38.961H6.20305V45H5.14705ZM18.4909 45.066C17.9042 45.066 17.3836 44.9377 16.9289 44.681C16.4742 44.4243 16.1149 44.0723 15.8509 43.625C15.5869 43.1703 15.4549 42.657 15.4549 42.085C15.4549 41.5057 15.5869 40.9923 15.8509 40.545C16.1149 40.0977 16.4742 39.7493 16.9289 39.5C17.3836 39.2433 17.9042 39.115 18.4909 39.115C19.0702 39.115 19.5872 39.2433 20.0419 39.5C20.5039 39.7493 20.8632 40.0977 21.1199 40.545C21.3839 40.985 21.5159 41.4983 21.5159 42.085C21.5159 42.6643 21.3839 43.1777 21.1199 43.625C20.8632 44.0723 20.5039 44.4243 20.0419 44.681C19.5872 44.9377 19.0702 45.066 18.4909 45.066ZM18.4909 44.142C18.8649 44.142 19.1986 44.0577 19.4919 43.889C19.7926 43.7203 20.0272 43.482 20.1959 43.174C20.3646 42.8587 20.4489 42.4957 20.4489 42.085C20.4489 41.667 20.3646 41.3077 20.1959 41.007C20.0272 40.699 19.7926 40.4607 19.4919 40.292C19.1986 40.1233 18.8649 40.039 18.4909 40.039C18.1169 40.039 17.7832 40.1233 17.4899 40.292C17.1966 40.4607 16.9619 40.699 16.7859 41.007C16.6099 41.3077 16.5219 41.667 16.5219 42.085C16.5219 42.4957 16.6099 42.8587 16.7859 43.174C16.9619 43.482 17.1966 43.7203 17.4899 43.889C17.7832 44.0577 18.1169 44.142 18.4909 44.142ZM26.5843 39.115C27.061 39.115 27.479 39.2067 27.8383 39.39C28.205 39.5733 28.491 39.852 28.6963 40.226C28.9017 40.6 29.0043 41.073 29.0043 41.645V45H27.9483V41.766C27.9483 41.2013 27.809 40.776 27.5303 40.49C27.259 40.204 26.874 40.061 26.3753 40.061C26.0013 40.061 25.675 40.1343 25.3963 40.281C25.1177 40.4277 24.9013 40.644 24.7473 40.93C24.6007 41.216 24.5273 41.5717 24.5273 41.997V45H23.4713V36.838H24.5273V40.743L24.3183 40.325C24.509 39.9437 24.8023 39.6467 25.1983 39.434C25.5943 39.2213 26.0563 39.115 26.5843 39.115ZM35.0726 45V43.768L35.0176 43.537V41.436C35.0176 40.9887 34.8856 40.644 34.6216 40.402C34.365 40.1527 33.9763 40.028 33.4556 40.028C33.111 40.028 32.7736 40.0867 32.4436 40.204C32.1136 40.314 31.835 40.4643 31.6076 40.655L31.1676 39.863C31.4683 39.621 31.8276 39.4377 32.2456 39.313C32.671 39.181 33.1146 39.115 33.5766 39.115C34.376 39.115 34.992 39.3093 35.4246 39.698C35.8573 40.0867 36.0736 40.6807 36.0736 41.48V45H35.0726ZM33.1586 45.066C32.726 45.066 32.3446 44.9927 32.0146 44.846C31.692 44.6993 31.4426 44.4977 31.2666 44.241C31.0906 43.977 31.0026 43.68 31.0026 43.35C31.0026 43.0347 31.076 42.7487 31.2226 42.492C31.3766 42.2353 31.6223 42.03 31.9596 41.876C32.3043 41.722 32.7663 41.645 33.3456 41.645H35.1936V42.404H33.3896C32.8616 42.404 32.506 42.492 32.3226 42.668C32.1393 42.844 32.0476 43.0567 32.0476 43.306C32.0476 43.592 32.1613 43.823 32.3886 43.999C32.616 44.1677 32.9313 44.252 33.3346 44.252C33.7306 44.252 34.0753 44.164 34.3686 43.988C34.6693 43.812 34.8856 43.5553 35.0176 43.218L35.2266 43.944C35.0873 44.2887 34.8416 44.5637 34.4896 44.769C34.1376 44.967 33.694 45.066 33.1586 45.066ZM41.6359 39.115C42.1125 39.115 42.5305 39.2067 42.8899 39.39C43.2565 39.5733 43.5425 39.852 43.7479 40.226C43.9532 40.6 44.0559 41.073 44.0559 41.645V45H42.9999V41.766C42.9999 41.2013 42.8605 40.776 42.5819 40.49C42.3105 40.204 41.9255 40.061 41.4269 40.061C41.0529 40.061 40.7265 40.1343 40.4479 40.281C40.1692 40.4277 39.9529 40.644 39.7989 40.93C39.6522 41.216 39.5789 41.5717 39.5789 41.997V45H38.5229V39.17H39.5349V40.743L39.3699 40.325C39.5605 39.9437 39.8539 39.6467 40.2499 39.434C40.6459 39.2213 41.1079 39.115 41.6359 39.115ZM48.9142 45.066C48.3495 45.066 47.8435 44.9413 47.3962 44.692C46.9562 44.4427 46.6078 44.0943 46.3512 43.647C46.0945 43.1997 45.9662 42.679 45.9662 42.085C45.9662 41.491 46.0945 40.974 46.3512 40.534C46.6078 40.0867 46.9562 39.7383 47.3962 39.489C47.8435 39.2397 48.3495 39.115 48.9142 39.115C49.4055 39.115 49.8492 39.225 50.2452 39.445C50.6412 39.665 50.9565 39.995 51.1912 40.435C51.4332 40.875 51.5542 41.425 51.5542 42.085C51.5542 42.745 51.4368 43.295 51.2022 43.735C50.9748 44.175 50.6632 44.5087 50.2672 44.736C49.8712 44.956 49.4202 45.066 48.9142 45.066ZM49.0022 44.142C49.3688 44.142 49.6988 44.0577 49.9922 43.889C50.2928 43.7203 50.5275 43.482 50.6962 43.174C50.8722 42.8587 50.9602 42.4957 50.9602 42.085C50.9602 41.667 50.8722 41.3077 50.6962 41.007C50.5275 40.699 50.2928 40.4607 49.9922 40.292C49.6988 40.1233 49.3688 40.039 49.0022 40.039C48.6282 40.039 48.2945 40.1233 48.0012 40.292C47.7078 40.4607 47.4732 40.699 47.2972 41.007C47.1212 41.3077 47.0332 41.667 47.0332 42.085C47.0332 42.4957 47.1212 42.8587 47.2972 43.174C47.4732 43.482 47.7078 43.7203 48.0012 43.889C48.2945 44.0577 48.6282 44.142 49.0022 44.142ZM50.9932 45V43.427L51.0592 42.074L50.9492 40.721V36.838H52.0052V45H50.9932ZM56.1702 45.066C55.6862 45.066 55.2242 45 54.7842 44.868C54.3515 44.736 54.0105 44.5747 53.7612 44.384L54.2012 43.548C54.4505 43.7167 54.7585 43.8597 55.1252 43.977C55.4919 44.0943 55.8659 44.153 56.2472 44.153C56.7385 44.153 57.0905 44.0833 57.3032 43.944C57.5232 43.8047 57.6332 43.6103 57.6332 43.361C57.6332 43.1777 57.5672 43.0347 57.4352 42.932C57.3032 42.8293 57.1272 42.7523 56.9072 42.701C56.6945 42.6497 56.4562 42.6057 56.1922 42.569C55.9282 42.525 55.6642 42.4737 55.4002 42.415C55.1362 42.349 54.8942 42.261 54.6742 42.151C54.4542 42.0337 54.2782 41.876 54.1462 41.678C54.0142 41.4727 53.9482 41.2013 53.9482 40.864C53.9482 40.512 54.0472 40.204 54.2452 39.94C54.4432 39.676 54.7219 39.4743 55.0812 39.335C55.4479 39.1883 55.8805 39.115 56.3792 39.115C56.7605 39.115 57.1455 39.1627 57.5342 39.258C57.9302 39.346 58.2529 39.4743 58.5022 39.643L58.0512 40.479C57.7872 40.303 57.5122 40.182 57.2262 40.116C56.9402 40.05 56.6542 40.017 56.3682 40.017C55.9062 40.017 55.5615 40.094 55.3342 40.248C55.1069 40.3947 54.9932 40.5853 54.9932 40.82C54.9932 41.018 55.0592 41.172 55.1912 41.282C55.3305 41.3847 55.5065 41.4653 55.7192 41.524C55.9392 41.5827 56.1812 41.634 56.4452 41.678C56.7092 41.7147 56.9732 41.766 57.2372 41.832C57.5012 41.8907 57.7395 41.975 57.9522 42.085C58.1722 42.195 58.3482 42.349 58.4802 42.547C58.6195 42.745 58.6892 43.009 58.6892 43.339C58.6892 43.691 58.5865 43.9953 58.3812 44.252C58.1759 44.5087 57.8862 44.7103 57.5122 44.857C57.1382 44.9963 56.6909 45.066 56.1702 45.066Z" fill="#17080E"/>
</svg>
