<svg width="28" height="25" viewBox="0 0 28 25" fill="none" xmlns="http://www.w3.org/2000/svg">
<path d="M26.9524 4.71429H9.14285M5.90475 4.71429H1.04761M26.9524 20.9048H9.14285M5.90475 20.9048H1.04761M18.8571 12.8095H1.04761M26.9524 12.8095H22.0952M7.5238 1.4762C7.9532 1.4762 8.36501 1.64677 8.66864 1.9504C8.97227 2.25403 9.14285 2.66585 9.14285 3.09524V6.33334C9.14285 6.76274 8.97227 7.17455 8.66864 7.47818C8.36501 7.78181 7.9532 7.95239 7.5238 7.95239C7.0944 7.95239 6.68259 7.78181 6.37896 7.47818C6.07533 7.17455 5.90475 6.76274 5.90475 6.33334V3.09524C5.90475 2.66585 6.07533 2.25403 6.37896 1.9504C6.68259 1.64677 7.0944 1.4762 7.5238 1.4762ZM7.5238 17.6667C7.9532 17.6667 8.36501 17.8372 8.66864 18.1409C8.97227 18.4445 9.14285 18.8563 9.14285 19.2857V22.5238C9.14285 22.9532 8.97227 23.365 8.66864 23.6687C8.36501 23.9723 7.9532 24.1429 7.5238 24.1429C7.0944 24.1429 6.68259 23.9723 6.37896 23.6687C6.07533 23.365 5.90475 22.9532 5.90475 22.5238V19.2857C5.90475 18.8563 6.07533 18.4445 6.37896 18.1409C6.68259 17.8372 7.0944 17.6667 7.5238 17.6667ZM20.4762 9.57143C20.9056 9.57143 21.3174 9.74201 21.621 10.0456C21.9246 10.3493 22.0952 10.7611 22.0952 11.1905V14.4286C22.0952 14.858 21.9246 15.2698 21.621 15.5734C21.3174 15.877 20.9056 16.0476 20.4762 16.0476C20.0468 16.0476 19.635 15.877 19.3313 15.5734C19.0277 15.2698 18.8571 14.858 18.8571 14.4286V11.1905C18.8571 10.7611 19.0277 10.3493 19.3313 10.0456C19.635 9.74201 20.0468 9.57143 20.4762 9.57143Z" stroke="black" stroke-linecap="round" stroke-linejoin="round"/>
</svg>
