<svg width="43" height="30" viewBox="0 0 43 30" fill="none" xmlns="http://www.w3.org/2000/svg">
<g clip-path="url(#clip0_12_5539)">
<path d="M35.871 23.6802L22.2167 28.6667C21.8983 28.7872 21.5468 28.7872 21.2284 28.6667L7.54386 23.6802C7.26429 23.5802 7.02268 23.3958 6.85241 23.1526C6.68214 22.9093 6.59161 22.6192 6.59333 22.3223V12.3568H36.7688V22.3223C36.7745 22.613 36.6917 22.8985 36.5314 23.141C36.371 23.3836 36.1407 23.5716 35.871 23.6802Z" fill="white"/>
<path d="M21.4019 22.6844L1.56912 13.4281C1.43742 13.368 1.32575 13.2714 1.24745 13.1497C1.16915 13.028 1.12751 12.8863 1.12751 12.7416C1.12751 12.5968 1.16915 12.4552 1.24745 12.3334C1.32575 12.2117 1.43742 12.1151 1.56912 12.0551L21.4019 2.79875C21.5023 2.75165 21.6117 2.72723 21.7225 2.72723C21.8334 2.72723 21.9428 2.75165 22.0432 2.79875L41.876 12.0702C42.0077 12.1302 42.1193 12.2268 42.1976 12.3485C42.2759 12.4702 42.3176 12.6119 42.3176 12.7566C42.3176 12.9014 42.2759 13.0431 42.1976 13.1648C42.1193 13.2865 42.0077 13.3831 41.876 13.4431L22.0432 22.6844C21.9428 22.7315 21.8334 22.7559 21.7225 22.7559C21.6117 22.7559 21.5023 22.7315 21.4019 22.6844Z" fill="#888888"/>
<path d="M23.8084 2.927C23.8084 3.3403 23.6859 3.74431 23.4562 4.08795C23.2266 4.43159 22.9003 4.69943 22.5184 4.85759C22.1366 5.01575 21.7165 5.05713 21.3111 4.9765C20.9057 4.89587 20.5334 4.69685 20.2412 4.40461C19.9489 4.11237 19.7499 3.74003 19.6693 3.33467C19.5886 2.92932 19.63 2.50916 19.7882 2.12733C19.9463 1.7455 20.2142 1.41914 20.5578 1.18952C20.9015 0.959911 21.3055 0.837355 21.7188 0.837355C21.9935 0.836358 22.2656 0.889727 22.5196 0.994388C22.7736 1.09905 23.0044 1.25293 23.1986 1.44718C23.3928 1.64142 23.5467 1.87217 23.6514 2.12615C23.756 2.38013 23.8094 2.65231 23.8084 2.927Z" fill="#888888"/>
<path d="M41.2725 25.8452C41.2725 26.6449 40.6312 28.7345 39.8316 28.7345C39.0319 28.7345 38.3832 26.6449 38.3832 25.8452C38.3688 25.6467 38.3955 25.4474 38.4616 25.2597C38.5277 25.072 38.6318 24.8999 38.7673 24.7542C38.9029 24.6085 39.067 24.4923 39.2495 24.4128C39.4319 24.3334 39.6288 24.2924 39.8278 24.2924C40.0268 24.2924 40.2237 24.3334 40.4062 24.4128C40.5886 24.4923 40.7527 24.6085 40.8883 24.7542C41.0238 24.8999 41.1279 25.072 41.194 25.2597C41.2601 25.4474 41.2868 25.6467 41.2725 25.8452Z" fill="#888888"/>
<path d="M23.1672 12.7416C23.1717 13.0289 23.0906 13.3112 22.9342 13.5523C22.7778 13.7935 22.5532 13.9826 22.2889 14.0957C22.0247 14.2089 21.7328 14.2408 21.4503 14.1875C21.1679 14.1342 20.9077 13.998 20.7029 13.7964C20.498 13.5948 20.3578 13.3368 20.3001 13.0552C20.2423 12.7736 20.2696 12.4812 20.3786 12.2153C20.4875 11.9493 20.6731 11.7217 20.9118 11.5615C21.1504 11.4014 21.4313 11.3158 21.7188 11.3158C22.099 11.3157 22.4641 11.4652 22.735 11.732C23.006 11.9987 23.1613 12.3613 23.1672 12.7416Z" fill="#888888"/>
<path d="M22.0432 22.6844C21.9428 22.7315 21.8334 22.7559 21.7225 22.7559C21.6117 22.7559 21.5023 22.7315 21.4019 22.6844L6.62351 15.7893V22.3223C6.61953 22.6156 6.70564 22.9031 6.87023 23.1459C7.03481 23.3887 7.26993 23.5752 7.54386 23.6802L21.2284 28.6666C21.5468 28.7872 21.8983 28.7872 22.2167 28.6666L35.8711 23.7028C36.1506 23.6028 36.3922 23.4184 36.5625 23.1752C36.7328 22.9319 36.8233 22.6418 36.8216 22.3449V15.7893L22.0432 22.6844Z" stroke="#17080E" stroke-linecap="round" stroke-linejoin="round"/>
<path d="M23.8084 2.927C23.8084 3.3403 23.6859 3.74431 23.4562 4.08795C23.2266 4.43159 22.9003 4.69943 22.5184 4.85759C22.1366 5.01575 21.7165 5.05713 21.3111 4.9765C20.9057 4.89587 20.5334 4.69685 20.2412 4.40461C19.9489 4.11237 19.7499 3.74003 19.6693 3.33467C19.5886 2.92932 19.63 2.50916 19.7882 2.12733C19.9463 1.7455 20.2142 1.41914 20.5578 1.18952C20.9015 0.959911 21.3055 0.837355 21.7188 0.837355C21.9935 0.836358 22.2656 0.889727 22.5196 0.994388C22.7736 1.09905 23.0044 1.25293 23.1986 1.44718C23.3928 1.64142 23.5467 1.87217 23.6514 2.12615C23.756 2.38013 23.8094 2.65231 23.8084 2.927Z" stroke="#17080E" stroke-linecap="round" stroke-linejoin="round"/>
<path d="M41.876 12.0702L23.6953 3.56824C23.5597 3.98467 23.2959 4.34754 22.9415 4.60487C22.5872 4.8622 22.1605 5.00078 21.7225 5.00078C21.2846 5.00078 20.8579 4.8622 20.5035 4.60487C20.1492 4.34754 19.8854 3.98467 19.7498 3.56824L1.56912 12.0702C1.43742 12.1302 1.32575 12.2268 1.24745 12.3485C1.16915 12.4702 1.12751 12.6119 1.12751 12.7567C1.12751 12.9014 1.16915 13.0431 1.24745 13.1648C1.32575 13.2865 1.43742 13.3831 1.56912 13.4432L21.4019 22.6844C21.5023 22.7315 21.6117 22.7559 21.7225 22.7559C21.8334 22.7559 21.9428 22.7315 22.0432 22.6844L41.876 13.4281C42.0035 13.3663 42.1111 13.2698 42.1863 13.1498C42.2616 13.0297 42.3015 12.8908 42.3015 12.7491C42.3015 12.6074 42.2616 12.4685 42.1863 12.3485C42.1111 12.2284 42.0035 12.1319 41.876 12.0702Z" stroke="#17080E" stroke-linecap="round" stroke-linejoin="round"/>
<path d="M39.8316 22.5938V24.5175" stroke="#17080E" stroke-linecap="round" stroke-linejoin="round"/>
<path d="M39.8316 21.1454V21.2661" stroke="#17080E" stroke-linecap="round" stroke-linejoin="round"/>
<path d="M23.1597 12.8698L39.8316 14.3861V19.6442" stroke="#17080E" stroke-linecap="round" stroke-linejoin="round"/>
<path d="M41.2725 25.8452C41.2725 26.6449 40.6312 28.7345 39.8316 28.7345C39.0319 28.7345 38.3832 26.6449 38.3832 25.8452C38.3688 25.6467 38.3955 25.4474 38.4616 25.2597C38.5277 25.072 38.6318 24.8999 38.7673 24.7542C38.9029 24.6085 39.067 24.4923 39.2495 24.4128C39.4319 24.3334 39.6288 24.2924 39.8278 24.2924C40.0268 24.2924 40.2237 24.3334 40.4062 24.4128C40.5886 24.4923 40.7527 24.6085 40.8883 24.7542C41.0238 24.8999 41.1279 25.072 41.194 25.2597C41.2601 25.4474 41.2868 25.6467 41.2725 25.8452Z" stroke="#17080E" stroke-linecap="round" stroke-linejoin="round"/>
<path d="M23.1672 12.7416C23.1717 13.0289 23.0906 13.3112 22.9342 13.5523C22.7778 13.7935 22.5532 13.9826 22.2889 14.0957C22.0247 14.2089 21.7328 14.2408 21.4503 14.1875C21.1679 14.1342 20.9077 13.998 20.7029 13.7964C20.498 13.5948 20.3578 13.3368 20.3001 13.0552C20.2423 12.7736 20.2696 12.4812 20.3786 12.2153C20.4875 11.9493 20.6731 11.7217 20.9118 11.5615C21.1504 11.4014 21.4313 11.3158 21.7188 11.3158C22.099 11.3157 22.4641 11.4652 22.735 11.732C23.006 11.9987 23.1613 12.3613 23.1672 12.7416Z" stroke="#17080E" stroke-linecap="round" stroke-linejoin="round"/>
<path d="M13.7449 22.3826L13.8656 22.443" stroke="#17080E" stroke-linecap="round" stroke-linejoin="round"/>
<path d="M6.62351 19.1614L12.6058 21.8319" stroke="#17080E" stroke-linecap="round" stroke-linejoin="round"/>
</g>
<defs>
<clipPath id="clip0_12_5539">
<rect width="43" height="29.4211" fill="white"/>
</clipPath>
</defs>
</svg>
