<svg width="39" height="27" viewBox="0 0 39 27" fill="none" xmlns="http://www.w3.org/2000/svg">
<path d="M0.343414 22.7072H37.8385V25.2829C37.8385 25.6472 37.6937 25.9966 37.4361 26.2542C37.1785 26.5118 36.8291 26.6566 36.4648 26.6566H1.71711C1.35278 26.6566 1.00338 26.5118 0.745761 26.2542C0.488143 25.9966 0.343414 25.6472 0.343414 25.2829V22.7072Z" fill="black"/>
<path d="M3.35868 0.343414H34.8232C35.1875 0.343414 35.5369 0.488143 35.7945 0.745761C36.0522 1.00338 36.1969 1.35278 36.1969 1.71711V19.4172H1.98499V1.71711C1.98499 1.35278 2.12971 1.00338 2.38733 0.745761C2.64495 0.488143 2.99435 0.343414 3.35868 0.343414Z" fill="#F6F6F6"/>
<path d="M36.19 19.4172H1.98499V22.7072H36.19V19.4172Z" fill="#797979"/>
<path d="M0.343414 22.7072H37.8385V25.2829C37.8385 25.6472 37.6937 25.9966 37.4361 26.2542C37.1785 26.5118 36.8291 26.6566 36.4648 26.6566H1.71711C1.35278 26.6566 1.00338 26.5118 0.745761 26.2542C0.488143 25.9966 0.343414 25.6472 0.343414 25.2829V22.7072Z" stroke="black" stroke-linecap="round" stroke-linejoin="round"/>
<path d="M3.35868 0.343414H34.8232C35.1875 0.343414 35.5369 0.488143 35.7945 0.745761C36.0522 1.00338 36.1969 1.35278 36.1969 1.71711V19.4172H1.98499V1.71711C1.98499 1.35278 2.12971 1.00338 2.38733 0.745761C2.64495 0.488143 2.99435 0.343414 3.35868 0.343414Z" fill="#D8D8D8" stroke="black" stroke-linecap="round" stroke-linejoin="round"/>
<path d="M36.19 19.4172H1.98499V22.7072H36.19V19.4172Z" stroke="black" stroke-linecap="round" stroke-linejoin="round"/>
<path d="M28.9575 8.23529V12.844" stroke="black" stroke-linecap="round" stroke-linejoin="round"/>
<path d="M5.85193 24.6853H5.93435" stroke="black" stroke-linecap="round" stroke-linejoin="round"/>
<path d="M0.343414 24.6853H4.47137" stroke="black" stroke-linecap="round" stroke-linejoin="round"/>
<path d="M33.7242 4.30652V8.23529" stroke="black" stroke-linecap="round" stroke-linejoin="round"/>
<path d="M33.7242 2.97403V3.07019" stroke="black" stroke-linecap="round" stroke-linejoin="round"/>
</svg>
