<svg width="29" height="29" viewBox="0 0 29 29" fill="none" xmlns="http://www.w3.org/2000/svg">
<g clip-path="url(#clip0_12_5563)">
<path d="M28.5466 0.178013C28.9026 0.436942 29.0483 0.78218 28.9835 1.21373L24.8407 26.0709C24.7867 26.3837 24.6141 26.6265 24.3228 26.7991C24.1718 26.8854 24.0046 26.9286 23.8211 26.9286C23.7025 26.9286 23.573 26.9016 23.4328 26.8477L16.1018 23.8538L12.1855 28.6278C11.9914 28.8759 11.727 29 11.3926 29C11.2523 29 11.1337 28.9784 11.0366 28.9353C10.8316 28.8597 10.667 28.733 10.543 28.555C10.4189 28.377 10.3569 28.1801 10.3569 27.9643V22.3164L24.339 5.17857L7.03934 20.1479L0.647044 17.5262C0.247863 17.3752 0.032089 17.0785 -0.00027708 16.6362C-0.0218545 16.2046 0.150765 15.8863 0.51758 15.6814L27.4461 0.145647C27.608 0.0485491 27.7806 0 27.964 0C28.1798 0 28.374 0.0593378 28.5466 0.178013Z" fill="black"/>
</g>
<defs>
<clipPath id="clip0_12_5563">
<rect width="29" height="29" fill="white"/>
</clipPath>
</defs>
</svg>
