<svg width="31" height="31" viewBox="0 0 31 31" fill="none" xmlns="http://www.w3.org/2000/svg">
<path d="M8.11913 9.59525H16.9763C17.7593 9.59525 18.5102 9.9063 19.0639 10.46C19.6176 11.0137 19.9287 11.7646 19.9287 12.5476V18.4524C19.9287 19.2354 19.6176 19.9864 19.0639 20.54C18.5102 21.0937 17.7593 21.4048 16.9763 21.4048H8.11913C7.33611 21.4048 6.58516 21.0937 6.03148 20.54C5.4778 19.9864 5.16675 19.2354 5.16675 18.4524V12.5476C5.16675 11.7646 5.4778 11.0137 6.03148 10.46C6.58516 9.9063 7.33611 9.59525 8.11913 9.59525ZM19.9287 14.0238L23.4715 11.3667C23.6908 11.2022 23.9516 11.102 24.2247 11.0774C24.4977 11.0528 24.7722 11.1047 25.0174 11.2273C25.2626 11.3499 25.4688 11.5383 25.6129 11.7715C25.7571 12.0047 25.8334 12.2735 25.8334 12.5476V18.4524C25.8334 18.7265 25.7571 18.9953 25.6129 19.2285C25.4688 19.4617 25.2626 19.6501 25.0174 19.7727C24.7722 19.8953 24.4977 19.9472 24.2247 19.9226C23.9516 19.898 23.6908 19.7978 23.4715 19.6333L19.9287 16.9762V14.0238Z" stroke="white" stroke-linecap="round" stroke-linejoin="round"/>
</svg>
