<svg width="16" height="21" viewBox="0 0 16 21" fill="none" xmlns="http://www.w3.org/2000/svg">
<path d="M1.5 8.75001V19.25C1.5 19.388 1.612 19.5 1.75 19.5H14.25C14.3163 19.5 14.3799 19.4737 14.4268 19.4268C14.4737 19.3799 14.5 19.3163 14.5 19.25V8.75001C14.5 8.68371 14.4737 8.62012 14.4268 8.57323C14.3799 8.52635 14.3163 8.50001 14.25 8.50001H11.75C11.5511 8.50001 11.3603 8.42099 11.2197 8.28034C11.079 8.13969 11 7.94892 11 7.75001C11 7.5511 11.079 7.36033 11.2197 7.21968C11.3603 7.07903 11.5511 7.00001 11.75 7.00001H14.25C15.216 7.00001 16 7.78401 16 8.75001V19.25C16 19.7141 15.8156 20.1593 15.4874 20.4874C15.1592 20.8156 14.7141 21 14.25 21H1.75C1.28587 21 0.840752 20.8156 0.512563 20.4874C0.184375 20.1593 0 19.7141 0 19.25V8.75001C0 7.78401 0.784 7.00001 1.75 7.00001H4.25C4.44891 7.00001 4.63968 7.07903 4.78033 7.21968C4.92098 7.36033 5 7.5511 5 7.75001C5 7.94892 4.92098 8.13969 4.78033 8.28034C4.63968 8.42099 4.44891 8.50001 4.25 8.50001H1.75C1.6837 8.50001 1.62011 8.52635 1.57322 8.57323C1.52634 8.62012 1.5 8.68371 1.5 8.75001ZM8.53 0.220011L11.78 3.47001C11.8787 3.56168 11.9509 3.67829 11.9889 3.80753C12.0269 3.93678 12.0294 4.07389 11.996 4.20442C11.9626 4.33494 11.8947 4.45405 11.7993 4.54919C11.7039 4.64433 11.5846 4.71198 11.454 4.74501C11.3236 4.77843 11.1867 4.7761 11.0575 4.73826C10.9283 4.70043 10.8117 4.62849 10.72 4.53001L8.75 2.56001V13.25C8.75 13.4489 8.67098 13.6397 8.53033 13.7803C8.38968 13.921 8.19891 14 8 14C7.80109 14 7.61032 13.921 7.46967 13.7803C7.32902 13.6397 7.25 13.4489 7.25 13.25V2.56001L5.28 4.53001C5.13774 4.66242 4.94969 4.73452 4.75537 4.73117C4.56105 4.72781 4.3756 4.64925 4.238 4.51201C4.10076 4.37441 4.0222 4.18896 4.01884 3.99464C4.01549 3.80032 4.08759 3.61227 4.22 3.47001L7.47 0.220011C7.61063 0.079561 7.80125 0.000671387 8 0.000671387C8.19875 0.000671387 8.38937 0.079561 8.53 0.220011Z" fill="#DA005C"/>
</svg>
